<svg viewBox="0 0 32 32" enable-background="new 0 0 32 32" version="1.1" xml:space="preserve" xmlns="http://www.w3.org/2000/svg" xmlns:xlink="http://www.w3.org/1999/xlink" fill="#000000"><g id="SVGRepo_bgCarrier" stroke-width="0"></g><g id="SVGRepo_tracerCarrier" stroke-linecap="round" stroke-linejoin="round"></g><g id="SVGRepo_iconCarrier"> <g id="Home"></g> <g id="Print"></g> <g id="Mail"></g> <g id="Camera"></g> <g id="Video"></g> <g id="Film"></g> <g id="Message"></g> <g id="Telephone"></g> <g id="User"></g> <g id="File"></g> <g id="Folder"></g> <g id="Map"></g> <g id="Download"></g> <g id="Upload"></g> <g id="Video_Recorder"></g> <g id="Schedule"></g> <g id="Cart"></g> <g id="Setting"></g> <g id="Search"></g> <g id="Pencils"></g> <g id="Group"></g> <g id="Record"></g> <g id="Headphone"></g> <g id="Music_Player"></g> <g id="Sound_On"></g> <g id="Sound_Off"></g> <g id="Lock"></g> <g id="Lock_open"></g> <g id="Love"> <path d="M29.5,4.5C27.8,2.3,25.3,1,22.7,1c-2.6,0-5.1,1.3-6.7,3.5C14.4,2.3,11.9,1,9.3,1C6.7,1,4.2,2.3,2.5,4.5 c-1.9,2.6-2,6.4-0.3,9.3c0,0,0,0.1,0.1,0.1l12.9,16.6c0.2,0.3,0.5,0.4,0.8,0.4s0.6-0.1,0.8-0.4L29.7,14c0,0,0-0.1,0.1-0.1 C31.5,11,31.4,7.1,29.5,4.5z" fill="#bce3f0"></path> </g> <g id="Favorite"></g> <g id="Film_1_"></g> <g id="Music"></g> <g id="Puzzle"></g> <g id="Turn_Off"></g> <g id="Book"></g> <g id="Save"></g> <g id="Reload"></g> <g id="Trash"></g> <g id="Tag"></g> <g id="Link"></g> <g id="Like"></g> <g id="Bad"></g> <g id="Gallery"></g> <g id="Add"></g> <g id="Close"></g> <g id="Forward"></g> <g id="Back"></g> <g id="Buy"></g> <g id="Mac"></g> <g id="Laptop"></g> </g></svg>